# xmcd
#
# Track frame offsets:
#	150
#	14307
#	29231
#	40460
#	52895
#	64266
#	82210
#	108690
#	122222
#	137825
#	153271
#	165778
#	179034
#	193794
#	208605
#	224226
#	240316
#	254490
#	268779
#	279502
#	294952
#
# Disc length: 4136 seconds
#
# Revision: 0
# Processed by: cddbd v1.5.2PL0 Copyright (c) Steve Scherf et al.
# Submitted via: EasyCDDAExtractor 16.0.6.1
#
DISCID=4b102615
DTITLE=Συλλογικός δίσκος - Ελληνικό Πάσχα 4
DYEAR=2012
DGENRE=Παραδοσιακή
TTITLE0=Κονιτοπούλου Ειρήνη - Βεγγέρα [Γ. Κονιτόπουλος-Ειρήνη Χάλκου]
TTITLE1=Καραμπεσίνη Άννα-Σαρρή Έφη - Παπαρούνα [Ά. Καραμπεσίνη-Έφη Σαρρή]
TTITLE2=Καραμπεσίνη Άννα-Σαρρή Έφη - Στ' ορκίζομαι περιβολαριά [Ά. Καραμπεσίνη
TTITLE2=Έφη Σαρρή]
TTITLE3=Κονιτοπούλου Ειρήνη - Παναγιά μου ένα παιδί [Γιώργος Κονιτόπουλος]
TTITLE4=Κονιτοπούλου Ειρήνη - Τσιριγότικος συρτός πηδηχτός [Γιώργος Κονιτόπουλ
TTITLE4=ος]
TTITLE5=Κονιτοπούλου Αγγελική - Αρμενάκι [παραδ., διασκ. Γ. Κονιτόπουλος]
TTITLE6=Κονιτοπούλου Αγγελική-Κονιτοπούλου Στέλλα - Αμοργιανό-Ματάκια-Έλα-Το λ
TTITLE6=ουλουδάκι [Γ. Κονιτόπουλος]
TTITLE7=Κονιτόπουλος Γιώργος - Λυγαριά [Γ. Κονιτόπουλος]
TTITLE8=Κονιτόπουλος Βαγγέλης - Γιάντα [Νίκος Οικονομίδης]
TTITLE9=Κονιτόπουλος Βαγγέλης - Τα παλαιά μου βάσανα [Βαγγ. Κονιτόπουλος]
TTITLE10=Κονιτοπούλου Αγγελική - Η θάλασσα κι ο ουρανός [Γ. Κονιτόπουλος]
TTITLE11=Κονιτοπούλου Ειρήνη - Το πλατανιώτικο νερό [Γ. Κονιτόπουλος]
TTITLE12=Κονιτοπούλου Ειρήνη - Νησιώτικη γιορτή [Γ. Κονιτόπουλος]
TTITLE13=Καραμπεσίνη Άννα-Σαρρή Έφη - Παραπονιάρικό μου [Ά. Καραμπεσίνη-Έφη Σα
TTITLE13=ρρή]
TTITLE14=Καραμπεσίνη Άννα-Σαρρή Έφη - Έμαθα αρραβωνιάστηκες [Ά. Καραμπεσίνη-Έφ
TTITLE14=η Σαρρή]
TTITLE15=Μουντάκης Κώστας - Ο πραματευτής [Κ. Μουντάκης]
TTITLE16=Σκορδαλός Θανάσης - Φιλεντέμ (Μιά τουρκοπούλα στο τζαμί)[Ι. Μπερνιδάκ
TTITLE16=ης-Θ.Σκορδαλός]
TTITLE17=Μουντάκης Κώστας - Ο αργαλειός [Κ. Μουντάκης]
TTITLE18=Ξυλούρης Νίκος - Ανωγειανές κοντυλιές [Ν. Ξυλούρης-Α. Σταυρακάκης]
TTITLE19=Ξυλούρης Νίκος - Ανυφαντού [Ν. Ξυλούρης]
TTITLE20=Μουντάκης Κώστας - Αποχαιρετισμός [Κ. Μουντάκης]
EXTD=
EXTT0=
EXTT1=
EXTT2=
EXTT3=
EXTT4=
EXTT5=
EXTT6=
EXTT7=
EXTT8=
EXTT9=
EXTT10=
EXTT11=
EXTT12=
EXTT13=
EXTT14=
EXTT15=
EXTT16=
EXTT17=
EXTT18=
EXTT19=
EXTT20=
PLAYORDER=
